<svg width="260" height="100" viewBox="0 0 260 100" fill="none" xmlns="http://www.w3.org/2000/svg">
<rect y="17.1788" width="206.762" height="65.0892" fill="#47BCD3"/>
<path d="M259.25 50.6323L198.922 92.4376L200.221 6.93019L259.25 50.6323Z" fill="#47BCD3"/>
<path d="M72.8203 57.4297V62H58.5039V57.4297H72.8203ZM60.3984 33.5625V62H54.5391V33.5625H60.3984ZM80.5156 57.8984L85.2031 40.8672H91.082L83.9531 62H80.3984L80.5156 57.8984ZM77.293 40.8672L82 57.918L82.0977 62H78.5234L71.3945 40.8672H77.293ZM107.078 33.5039V62H101.453V39.9883L94.6953 42.1367V37.7031L106.473 33.5039H107.078ZM142.586 33.5625H148.426V52.3516C148.426 54.5391 147.957 56.3815 147.02 57.8789C146.095 59.3763 144.812 60.5026 143.172 61.2578C141.544 62.013 139.669 62.3906 137.547 62.3906C135.424 62.3906 133.536 62.013 131.883 61.2578C130.242 60.5026 128.953 59.3763 128.016 57.8789C127.091 56.3815 126.629 54.5391 126.629 52.3516V33.5625H132.488V52.3516C132.488 53.6276 132.69 54.6693 133.094 55.4766C133.497 56.2839 134.077 56.8763 134.832 57.2539C135.6 57.6315 136.505 57.8203 137.547 57.8203C138.615 57.8203 139.52 57.6315 140.262 57.2539C141.017 56.8763 141.59 56.2839 141.98 55.4766C142.384 54.6693 142.586 53.6276 142.586 52.3516V33.5625ZM158.523 44.9297V70.125H152.898V40.8672H158.113L158.523 44.9297ZM171.902 51.1992V51.6094C171.902 53.1458 171.72 54.5716 171.355 55.8867C171.004 57.2018 170.483 58.3477 169.793 59.3242C169.103 60.2878 168.243 61.043 167.215 61.5898C166.199 62.1237 165.027 62.3906 163.699 62.3906C162.41 62.3906 161.29 62.1302 160.34 61.6094C159.389 61.0885 158.589 60.3594 157.938 59.4219C157.299 58.4714 156.785 57.3711 156.395 56.1211C156.004 54.8711 155.704 53.5299 155.496 52.0977V51.0234C155.704 49.487 156.004 48.0807 156.395 46.8047C156.785 45.5156 157.299 44.4023 157.938 43.4648C158.589 42.5143 159.383 41.7786 160.32 41.2578C161.271 40.737 162.384 40.4766 163.66 40.4766C165.001 40.4766 166.18 40.7305 167.195 41.2383C168.224 41.7461 169.083 42.4753 169.773 43.4258C170.477 44.3763 171.004 45.5091 171.355 46.8242C171.72 48.1393 171.902 49.5977 171.902 51.1992ZM166.258 51.6094V51.1992C166.258 50.3008 166.18 49.474 166.023 48.7188C165.88 47.9505 165.646 47.2799 165.32 46.707C165.008 46.1341 164.591 45.6914 164.07 45.3789C163.562 45.0534 162.944 44.8906 162.215 44.8906C161.447 44.8906 160.789 45.0143 160.242 45.2617C159.708 45.5091 159.272 45.8672 158.934 46.3359C158.595 46.8047 158.341 47.3646 158.172 48.0156C158.003 48.6667 157.898 49.4023 157.859 50.2227V52.9375C157.924 53.901 158.107 54.7669 158.406 55.5352C158.706 56.2904 159.168 56.8893 159.793 57.332C160.418 57.7747 161.238 57.9961 162.254 57.9961C162.996 57.9961 163.621 57.8333 164.129 57.5078C164.637 57.1693 165.047 56.707 165.359 56.1211C165.685 55.5352 165.913 54.8581 166.043 54.0898C166.186 53.3216 166.258 52.4948 166.258 51.6094Z" fill="white"/>
</svg>
