<svg width="119" height="38" viewBox="0 0 119 38" fill="none" xmlns="http://www.w3.org/2000/svg">
<path d="M1.95 30C1.95 26.64 1.95 23.24 1.95 19.8C1.95 16.36 1.95 12.96 1.95 9.6C2.83 9.6 3.71 9.6 4.59 9.6C5.47 9.6 6.34 9.6 7.2 9.6C7.2 12.18 7.2 14.79 7.2 17.43C7.2 20.05 7.2 22.65 7.2 25.23C8.26 25.23 9.33 25.23 10.41 25.23C11.49 25.23 12.55 25.23 13.59 25.23C13.59 26.01 13.59 26.81 13.59 27.63C13.59 28.43 13.59 29.22 13.59 30C11.67 30 9.73 30 7.77 30C5.81 30 3.87 30 1.95 30ZM18.8138 30C17.9338 27.44 17.0338 24.86 16.1138 22.26C15.2138 19.64 14.3238 17.05 13.4437 14.49C14.3038 14.49 15.1638 14.49 16.0238 14.49C16.9038 14.49 17.7738 14.49 18.6338 14.49C19.1538 16.07 19.6738 17.66 20.1938 19.26C20.7338 20.84 21.2538 22.42 21.7538 24C22.2738 22.42 22.7938 20.84 23.3138 19.26C23.8338 17.66 24.3438 16.07 24.8438 14.49C25.6838 14.49 26.5338 14.49 27.3938 14.49C28.2538 14.49 29.1038 14.49 29.9438 14.49C29.0638 17.05 28.1638 19.64 27.2438 22.26C26.3438 24.86 25.4538 27.44 24.5738 30C23.6338 30 22.6738 30 21.6938 30C20.7138 30 19.7538 30 18.8138 30ZM39.1549 9.24C39.1549 12.66 39.1549 16.12 39.1549 19.62C39.1549 23.12 39.1549 26.58 39.1549 30C38.2949 30 37.4249 30 36.5449 30C35.6649 30 34.7849 30 33.9049 30C33.9049 27.56 33.9049 25.1 33.9049 22.62C33.9049 20.12 33.9049 17.66 33.9049 15.24C33.3249 15.36 32.7349 15.49 32.1349 15.63C31.5549 15.75 30.9749 15.87 30.3949 15.99C30.3949 15.19 30.3949 14.38 30.3949 13.56C30.3949 12.74 30.3949 11.93 30.3949 11.13C31.8349 10.81 33.2949 10.5 34.7749 10.2C36.2549 9.88 37.7149 9.56 39.1549 9.24ZM65.9423 22.26C65.9423 23.52 65.7223 24.66 65.2823 25.68C64.8623 26.68 64.2623 27.54 63.4823 28.26C62.7223 28.98 61.8223 29.53 60.7823 29.91C59.7623 30.29 58.6523 30.48 57.4523 30.48C56.2323 30.48 55.1123 30.29 54.0923 29.91C53.0723 29.53 52.1823 28.99 51.4223 28.29C50.6823 27.57 50.1023 26.71 49.6823 25.71C49.2623 24.71 49.0523 23.58 49.0523 22.32C49.0523 20.22 49.0523 18.1 49.0523 15.96C49.0523 13.82 49.0523 11.7 49.0523 9.6C49.9323 9.6 50.8123 9.6 51.6923 9.6C52.5723 9.6 53.4423 9.6 54.3023 9.6C54.3023 11.66 54.3023 13.73 54.3023 15.81C54.3023 17.89 54.3023 19.96 54.3023 22.02C54.3023 23.1 54.6023 23.97 55.2023 24.63C55.8023 25.29 56.5723 25.62 57.5123 25.62C58.4523 25.62 59.2123 25.29 59.7923 24.63C60.3923 23.97 60.6923 23.1 60.6923 22.02C60.6923 19.96 60.6923 17.89 60.6923 15.81C60.6923 13.73 60.6923 11.66 60.6923 9.6C61.5723 9.6 62.4523 9.6 63.3323 9.6C64.2123 9.6 65.0823 9.6 65.9423 9.6C65.9423 11.68 65.9423 13.79 65.9423 15.93C65.9423 18.07 65.9423 20.18 65.9423 22.26ZM74.1879 34.8C73.3879 34.8 72.5679 34.8 71.7279 34.8C70.8879 34.8 70.0579 34.8 69.2379 34.8C69.2379 31.46 69.2379 28.08 69.2379 24.66C69.2379 21.22 69.2379 17.83 69.2379 14.49C70.0579 14.49 70.8879 14.49 71.7279 14.49C72.5679 14.49 73.3879 14.49 74.1879 14.49C74.1879 14.63 74.1879 14.77 74.1879 14.91C74.1879 15.05 74.1879 15.2 74.1879 15.36C74.6879 14.96 75.2579 14.65 75.8979 14.43C76.5379 14.19 77.2179 14.07 77.9379 14.07C78.9379 14.07 79.8879 14.27 80.7879 14.67C81.6879 15.05 82.4779 15.6 83.1579 16.32C83.8579 17.04 84.3979 17.9 84.7779 18.9C85.1779 19.9 85.3779 21.01 85.3779 22.23C85.3779 23.43 85.1779 24.53 84.7779 25.53C84.3979 26.53 83.8579 27.4 83.1579 28.14C82.4779 28.86 81.6879 29.42 80.7879 29.82C79.8879 30.22 78.9279 30.42 77.9079 30.42C77.1879 30.42 76.5079 30.3 75.8679 30.06C75.2479 29.84 74.6879 29.52 74.1879 29.1C74.1879 30.04 74.1879 30.99 74.1879 31.95C74.1879 32.91 74.1879 33.86 74.1879 34.8ZM77.2479 26.04C78.2279 26.04 78.9979 25.7 79.5579 25.02C80.1379 24.32 80.4279 23.39 80.4279 22.23C80.4279 21.07 80.1379 20.15 79.5579 19.47C78.9979 18.79 78.2279 18.45 77.2479 18.45C76.2879 18.45 75.5179 18.8 74.9379 19.5C74.3579 20.18 74.0679 21.09 74.0679 22.23C74.0679 23.37 74.3579 24.29 74.9379 24.99C75.5179 25.69 76.2879 26.04 77.2479 26.04Z" fill="black"/>
<path d="M94 9L104 19.8254L94 31" stroke="#47BCD3" stroke-width="4"/>
<path d="M106 9L116 19.8254L106 31" stroke="#47BCD3" stroke-width="4"/>
</svg>
